<svg width="434" height="196" xmlns="http://www.w3.org/2000/svg" xmlns:xlink="http://www.w3.org/1999/xlink" overflow="hidden"><defs><clipPath id="clip0"><rect x="368" y="201" width="434" height="196"/></clipPath></defs><g clip-path="url(#clip0)" transform="translate(-368 -201)"><rect x="369.5" y="215.5" width="178" height="158" stroke="#000000" stroke-width="1.33333" stroke-miterlimit="8" fill="#9ACD60"/><rect x="372" y="274" width="172" height="39" fill="#9ACD60"/><text font-family="Arial,Arial_MSFontService,sans-serif" font-weight="400" font-size="24" transform="translate(383.83 302)">Course Name</text><rect x="369.5" y="215.5" width="178" height="31" stroke="#000000" stroke-width="1.33333" stroke-miterlimit="8" fill="#9ACD60"/><rect x="372" y="217" width="172" height="27" fill="#9ACD60"/><text font-family="Arial,Arial_MSFontService,sans-serif" font-weight="400" font-size="15" transform="translate(381.687 235)">Upper Codes</text><rect x="369.5" y="341.5" width="178" height="32" stroke="#000000" stroke-width="1.33333" stroke-miterlimit="8" fill="#9ACD60"/><rect x="372" y="344" width="172" height="27" fill="#9ACD60"/><text font-family="Arial,Arial_MSFontService,sans-serif" font-weight="400" font-size="15" transform="translate(414.58 362)">Course Code<tspan font-size="15" x="172.979" y="-142">Prerequisite to , Prerequisite to </tspan><tspan font-size="15" x="172.979" y="-110">Prerequisite to | Co requisite</tspan></text><path d="M0-0.666667 16.2426-0.666667 16.2426 15.8135 15.576 15.1469 24.4852 15.1469 24.4852 16.4802 14.9093 16.4802 14.9093 0 15.576 0.666667 0 0.666667ZM23.1519 11.8135 31.1519 15.8135 23.1519 19.8135Z" transform="matrix(1 0 0 -1 547.5 231.314)"/><path d="M547.5 230.833 563.743 230.833 563.743 247.314 563.076 246.647 571.985 246.647 571.985 247.98 562.409 247.98 562.409 231.5 563.076 232.167 547.5 232.167ZM570.652 243.314 578.652 247.314 570.652 251.314Z"/><text font-family="Arial,Arial_MSFontService,sans-serif" font-weight="400" font-size="15" transform="translate(587.909 362)">PHR2305C<tspan font-size="15" x="110.965" y="-19">No. of Credits</tspan><tspan font-size="15" x="110.965" y="17">With Lab</tspan></text><path d="M0-0.666667 16.2568-0.666667 16.2568 0.0692913 15.5901-0.597375 24.5135-0.597375 24.5135 0.735958 14.9235 0.735958 14.9235 0 15.5901 0.666667 0 0.666667ZM23.1802-3.93071 31.1802 0.0692913 23.1802 4.06929Z" transform="matrix(1 0 0 -1 547.5 357.569)"/><path d="M0-0.666667 1.28982-0.666667 1.28982 11.1887 0.623157 10.522 52.1803 10.522 52.1803 11.8553-0.0435096 11.8553-0.0435096 0 0.623157 0.666667 0 0.666667ZM50.8469 7.18866 58.8469 11.1887 50.8469 15.1887Z" transform="matrix(1 0 0 -1 630.5 348.689)"/><path d="M657.5 366.167 656.87 366.167 657.537 365.5 657.537 374.262 656.87 373.596 683.041 373.596 683.041 374.929 656.204 374.929 656.204 364.833 657.5 364.833ZM681.708 370.262 689.708 374.262 681.708 378.262Z"/></g></svg>